<svg id="Layer_1" data-name="Layer 1" xmlns="http://www.w3.org/2000/svg" viewBox="0 0 276.25 73.37"><defs><style>.cls-1{fill:#fff;}.cls-2{fill:#0882c3;}</style></defs><path class="cls-1" d="M31.31,7.45v3.74h-8.8V31.5h-4.4V11.19H9.31V7.45Z"/><path class="cls-1" d="M51.48,7.45h4.4V31.5h-4.4V21.34H38.28V31.5h-4.4v-24h4.4V17.6h13.2Z"/><path class="cls-1" d="M67.13,7.45h6.93l8.7,24.05H78.1l-2.2-6.15H65.3L63.06,31.5H58.44Zm7.41,14.16L70.76,11.19H70.4L66.66,21.61ZM68.45,5.34,72.38,0h4.51L71.64,5.34Z"/><path class="cls-1" d="M102.92,7.45h4.4V31.5H99.69L90.08,11.19h-.36V31.5h-4.4v-24h7.59l9.64,20.31h.37Z"/><path class="cls-1" d="M129.32,7.45h4.4V31.5h-4.4V21.34h-13.2V31.5h-4.4v-24h4.4V17.6h13.2Z"/><path class="cls-1" d="M171.67,15.46h-4.4V12.79c0-1.07-.48-1.6-1.47-1.6H155.53c-1,0-1.46.53-1.46,1.6V26.15c0,1.07.47,1.61,1.46,1.61H165.8c1,0,1.47-.54,1.47-1.61V21.34h-6.6V17.6h11v8.55c0,3.64-1.8,5.35-5.87,5.35H155.53c-4.07,0-5.87-1.71-5.87-5.35V12.79c0-3.64,1.8-5.34,5.87-5.34H165.8c4.07,0,5.87,1.7,5.87,5.34Z"/><path class="cls-1" d="M175.88,31.5v-24h4.4V31.5Z"/><path class="cls-1" d="M200.63,7.45c4.07,0,5.87,1.7,5.87,5.34V26.15c0,3.64-1.8,5.35-5.87,5.35H190.36c-4.07,0-5.86-1.71-5.86-5.35V12.79c0-3.64,1.79-5.34,5.86-5.34Zm1.47,5.34c0-1.07-.48-1.6-1.47-1.6H190.36c-1,0-1.46.53-1.46,1.6V26.15c0,1.07.47,1.61,1.46,1.61h10.27c1,0,1.47-.54,1.47-1.61Zm-9.17-7.45L196.85,0h4.52l-5.25,5.34Z"/><path class="cls-1" d="M228.32,7.45h4.4V31.5h-7.63l-9.61-20.31h-.37V31.5h-4.4v-24h7.59L228,27.76h.37Z"/><path class="cls-1" d="M258.93,15.46h-4.4V12.79c0-1.07-.48-1.6-1.47-1.6H242.8c-1,0-1.47.53-1.47,1.6V26.15c0,1.07.48,1.61,1.47,1.61h10.26c1,0,1.47-.54,1.47-1.61V21.34h-6.6V17.6h11v8.55c0,3.64-1.8,5.35-5.87,5.35H242.8c-4.08,0-5.87-1.71-5.87-5.35V12.79c0-3.64,1.79-5.34,5.87-5.34h10.26c4.07,0,5.87,1.7,5.87,5.34Z"/><path class="cls-1" d="M.31,44.63s144.67-24.91,274.62,0c.42.93,4.68,6.82-4.73,8.55,0,.16-262.74,0-262.74,0S-1.79,53.6.31,44.63Z"/><path class="cls-1" d="M14.74,61.87a1.81,1.81,0,0,1,2.07,2.07v5.19a1.81,1.81,0,0,1-2.07,2.08H9v-3.7H8.26v-1.3H9V61.87Zm.52,2.07c0-.41-.17-.62-.52-.62H10.58v2.89h1.95v1.3H10.58v2.25h4.16c.35,0,.52-.21.52-.63Z"/><path class="cls-1" d="M23.94,61.87c1.44,0,2.08.66,2.08,2.07v5.19c0,1.42-.64,2.08-2.08,2.08H20.31c-1.44,0-2.08-.66-2.08-2.08V63.94c0-1.41.64-2.07,2.08-2.07Zm.52,2.07c0-.41-.17-.62-.52-.62H20.31c-.35,0-.52.21-.52.62v5.19c0,.42.17.63.52.63h3.63c.35,0,.52-.21.52-.63Zm-2.42-4-.81,1.14H20L21.43,59h1.35l1.48,2.08H23l-.81-1.14Zm3.2-.5H24.13l-1.87-2.07h1.61Z"/><path class="cls-1" d="M33.74,61.87h1.55v9.34h-2.7l-3.4-7.89h-.13v7.89H27.51V61.87h2.68l3.42,7.89h.13Z"/><path class="cls-1" d="M44.57,65H43v-1c0-.41-.17-.62-.52-.62H38.86c-.35,0-.52.21-.52.62v5.19c0,.42.17.63.52.63h3.63c.35,0,.52-.21.52-.63V67.27H40.67V65.81h3.9v3.32c0,1.42-.64,2.08-2.08,2.08H38.86c-1.44,0-2.08-.66-2.08-2.08V63.94c0-1.41.64-2.07,2.08-2.07h3.63c1.44,0,2.08.66,2.08,2.07Z"/><path class="cls-1" d="M56.43,61.87H58v9.34H56.43V67.27H51.76v3.94H50.2V61.87h1.56v3.94h4.67Z"/><path class="cls-1" d="M64.42,61.87l3.07,9.34H65.85l-.78-2.39H61.32l-.79,2.39H58.89L62,61.87Zm-.34-.82H63L61.1,59h1.61ZM61.8,67.37h2.79l-1.34-4.05h-.13Z"/><path class="cls-1" d="M74.63,61.87h1.55v9.34h-2.7l-3.4-7.89H70v7.89H68.4V61.87h2.68l3.42,7.89h.13Z"/><path class="cls-1" d="M84,61.87h1.56v9.34H84V67.27H79.29v3.94H77.73V61.87h1.56v3.94H84Z"/><path class="cls-1" d="M97.38,68.1h1.56v1c0,1.42-.63,2.08-2.07,2.08H93.23c-1.44,0-2.07-.66-2.07-2.08V63.94c0-1.41.63-2.07,2.07-2.07h3.64c1.44,0,2.07.66,2.07,2.07v1H97.38v-1c0-.41-.16-.62-.51-.62H93.23c-.35,0-.52.21-.52.62v5.19c0,.42.17.63.52.63h3.64c.35,0,.51-.21.51-.63Z"/><path class="cls-1" d="M101.92,61.87v7.26c0,.42.17.63.52.63h3.63c.35,0,.52-.21.52-.63V61.87h1.56v7.26a1.81,1.81,0,0,1-2.08,2.08h-3.63a1.82,1.82,0,0,1-2.08-2.08V61.87Zm3.35-.82h-1.12L102.28,59h1.61Z"/><path class="cls-1" d="M115.93,61.87h1.56v9.34h-2.7l-3.4-7.89h-.13v7.89H109.7V61.87h2.69l3.41,7.89h.13Z"/><path class="cls-1" d="M126.76,65H125.2v-1c0-.41-.17-.62-.52-.62h-3.63c-.35,0-.52.21-.52.62v5.19c0,.42.17.63.52.63h3.63c.35,0,.52-.21.52-.63V67.27h-2.33V65.81h3.89v3.32c0,1.42-.64,2.08-2.08,2.08h-3.63c-1.44,0-2.08-.66-2.08-2.08V63.94c0-1.41.64-2.07,2.08-2.07h3.63c1.44,0,2.08.66,2.08,2.07Z"/><path class="cls-1" d="M138.11,61.87a1.81,1.81,0,0,1,2.07,2.07v5.19a1.81,1.81,0,0,1-2.07,2.08H132.4V61.87Zm.51,2.07c0-.41-.16-.62-.51-.62H134v6.44h4.16c.35,0,.51-.21.51-.63Z"/><path class="cls-1" d="M147.31,61.87c1.44,0,2.08.66,2.08,2.07v5.19c0,1.42-.64,2.08-2.08,2.08h-3.63c-1.44,0-2.08-.66-2.08-2.08V63.94c0-1.41.64-2.07,2.08-2.07Zm.52,2.07c0-.41-.17-.62-.52-.62h-3.63c-.35,0-.52.21-.52.62v5.19c0,.42.17.63.52.63h3.63c.35,0,.52-.21.52-.63Z"/><path class="cls-1" d="M155.76,61.87l3.07,9.34h-1.65l-.78-2.39h-3.75l-.79,2.39h-1.63l3.07-9.34Zm-2.63,5.5h2.79l-1.33-4.05h-.13Z"/><path class="cls-1" d="M166,61.87h1.56v9.34h-2.7l-3.4-7.89h-.13v7.89h-1.56V61.87h2.69l3.41,7.89H166Z"/><path class="cls-1" d="M175.3,61.87h1.56v9.34H175.3V67.27h-4.67v3.94h-1.56V61.87h1.56v3.94h4.67Z"/><path class="cls-1" d="M188.79,61.87h1.55v9.34h-2.69l-3.4-7.89h-.13v7.89h-1.56V61.87h2.68l3.42,7.89h.13Z"/><path class="cls-1" d="M199.62,65h-1.56v-1c0-.41-.17-.62-.52-.62h-3.63c-.35,0-.52.21-.52.62v5.19c0,.42.17.63.52.63h3.63c.35,0,.52-.21.52-.63V67.27h-2.34V65.81h3.9v3.32c0,1.42-.64,2.08-2.08,2.08h-3.63c-1.44,0-2.08-.66-2.08-2.08V63.94c0-1.41.64-2.07,2.08-2.07h3.63c1.44,0,2.08.66,2.08,2.07Z"/><path class="cls-1" d="M207.33,61.87h1.56v9.34h-1.56V67.27h-4.67v3.94H201.1V61.87h1.56v3.94h4.67Z"/><path class="cls-1" d="M210.44,71.21V61.87H212v9.34Z"/><path class="cls-1" d="M220.82,63.32h-5.71v2.49h5.58v1.46h-5.58v2.49h5.71v1.45h-7.27V61.87h7.27Zm-3.7-3.41-.8,1.14h-1.27L216.51,59h1.35l1.48,2.08h-1.27l-.82-1.14Zm.47,12.26a.71.71,0,1,1-1,0A.72.72,0,0,1,217.59,72.17Z"/><path class="cls-1" d="M227.89,61.87A1.81,1.81,0,0,1,230,63.94V66a1.81,1.81,0,0,1-2.07,2.08h-4.16v3.11h-1.55V61.87Zm.52,2.07c0-.41-.17-.62-.52-.62h-4.16v3.32h4.16c.35,0,.52-.21.52-.62Z"/><path class="cls-1" d="M239,69.76h.13l2.59-7.89h1.65l-3.08,9.34h-2.45l-3.07-9.34h1.63Z"/><path class="cls-1" d="M244.26,71.21V61.87h1.56v9.34Z"/><path class="cls-1" d="M254.64,63.32h-5.71v2.49h5.58v1.46h-5.58v2.49h5.71v1.45h-7.26V61.87h7.26Zm-3.7-3.41-.8,1.14h-1.27L250.33,59h1.35l1.48,2.08h-1.27l-.82-1.14Zm.47,12.26a.71.71,0,1,1-1,0A.72.72,0,0,1,251.41,72.17Z"/><path class="cls-1" d="M263.14,61.87v1.45H260v7.89h-1.56V63.32h-3.11V61.87Z"/><path class="cls-2" d="M80.7,40.63h3V50H82V42.08h-.14l-2,5.82H77.43l-2-5.82h-.14V50H73.64V40.63h3l2,5.81h.14Z"/><path class="cls-2" d="M87.93,40.63h2.63L93.86,50H92.09l-.83-2.39h-4L86.38,50H84.63Zm2.81,5.5-1.43-4.05h-.14l-1.42,4.05Zm-2.31-6.32,1.49-2.07h1.71l-2,2.07Z"/><path class="cls-2" d="M101.7,40.63l-3.64,6.19V50H96.39V46.82l-3.65-6.19h1.91l2.5,4.25h.14l2.51-4.25Z"/><path class="cls-2" d="M114.78,40.63v1.45h-3.34V50h-1.67V42.08h-3.34V40.63Z"/><path class="cls-2" d="M115.71,39.81l1.49-2.07h1.71l-2,2.07Zm0,10.16V40.63h1.67V50Z"/><path class="cls-2" d="M125.77,40.63h1.67V50h-2.89l-3.65-7.89h-.14V50h-1.67V40.63H122l3.66,7.89h.14Z"/><path class="cls-2" d="M135.79,40.63h1.67V50h-1.67V46h-5V50h-1.67V40.63h1.67v3.94h5Z"/><path class="cls-2" d="M147.42,48.52h.14l2.78-7.89h1.77L148.81,50h-2.63l-3.3-9.34h1.75Z"/><path class="cls-2" d="M153.08,50V40.63h1.67V50Z"/><path class="cls-2" d="M164.21,42.08h-6.12v2.49h6V46h-6v2.49h6.12V50h-7.79V40.63h7.79Zm-4-3.41-.86,1.14H158l1.57-2.07H161l1.58,2.07h-1.36l-.88-1.14Zm.51,12.26a.68.68,0,0,1,0,1,.82.82,0,0,1-1.08,0,.68.68,0,0,1,0-1A.82.82,0,0,1,160.75,50.93Z"/><path class="cls-2" d="M173.32,40.63v1.45H170V50h-1.67V42.08H165V40.63Z"/><path class="cls-2" d="M185.43,40.63h1.67V50h-2.9l-3.64-7.89h-.14V50h-1.67V40.63h2.88l3.66,7.89h.14Z"/><path class="cls-2" d="M194,40.63,197.3,50h-1.77l-.84-2.39h-4L189.82,50h-1.75l3.3-9.34Zm-2.82,5.5h3l-1.44-4.05h-.14Z"/><path class="cls-2" d="M205.32,40.63h3V50h-1.67V42.08h-.14l-2,5.82h-2.44l-2-5.82h-.13V50h-1.67V40.63h2.95l2,5.81h.13Z"/><path class="cls-1" d="M263.37,8.38V3.74h2a3.55,3.55,0,0,1,1.08.12,1.12,1.12,0,0,1,.54.45,1.35,1.35,0,0,1,.2.73,1.21,1.21,0,0,1-.31.86,1.45,1.45,0,0,1-.92.43,2.36,2.36,0,0,1,.51.39,5.08,5.08,0,0,1,.53.75l.56.91h-1.12l-.67-1a7.25,7.25,0,0,0-.5-.69.73.73,0,0,0-.28-.19,1.7,1.7,0,0,0-.47,0h-.19V8.38Zm.93-2.68H265a3.53,3.53,0,0,0,.85-.06.51.51,0,0,0,.26-.19.65.65,0,0,0,.09-.35.58.58,0,0,0-.12-.38.52.52,0,0,0-.35-.18c-.08,0-.31,0-.69,0h-.73Z"/><path class="cls-1" d="M265.23,11.14a5.07,5.07,0,1,1,5.07-5.07A5.07,5.07,0,0,1,265.23,11.14Zm0-9.5a4.44,4.44,0,1,0,4.44,4.43A4.44,4.44,0,0,0,265.23,1.64Z"/></svg>